<svg xmlns="http://www.w3.org/2000/svg" style="display:none">
  <defs>

  </defs>
  <symbol id="shield" viewBox="0 0 24 24">
    <path d="M12 2 4 5v6c0 5 3.4 9.4 8 11 4.6-1.6 8-6 8-11V5l-8-3Z"></path>
    <path d="m9 12 2 2 4-4"></path>
  </symbol>
  <symbol id="card" viewBox="0 0 24 24">
    <rect x="2" y="5" width="20" height="14" rx="2"></rect>
    <path d="M2 10h20"></path>
    <path d="M6 15h4"></path>
  </symbol>
  <symbol id="rotate" viewBox="0 0 24 24">
    <path d="M21 12a9 9 0 1 1-3.2-6.9"></path>
    <path d="M21 4v5h-5"></path>
  </symbol>
  <symbol id="lock" viewBox="0 0 24 24">
    <rect x="4" y="11" width="16" height="10" rx="2"></rect>
    <path d="M8 11V7a4 4 0 0 1 8 0v4"></path>
  </symbol>
  <symbol id="key" viewBox="0 0 24 24">
    <circle cx="7.5" cy="15.5" r="3.5"></circle>
    <path d="m10 13 10-10"></path>
    <path d="m17 6 3 3"></path>
    <path d="m14 9 3 3"></path>
  </symbol>
  <symbol id="fingerprint" viewBox="0 0 24 24">
    <path d="M12 3a8 8 0 0 0-8 8v2"></path>
    <path d="M8 11a4 4 0 0 1 8 0v3a6 6 0 0 1-1 3"></path>
    <path d="M12 11v4"></path>
    <path d="M6 17c1 1 2 3 2 4"></path>
    <path d="M20 13c0 2-.5 5-2 7"></path>
  </symbol>
  <symbol id="chart" viewBox="0 0 24 24">
    <path d="M3 3v18h18"></path>
    <path d="m7 14 3-3 4 4 6-7"></path>
  </symbol>
  <symbol id="bank" viewBox="0 0 24 24">
    <path d="M3 10h18"></path>
    <path d="m12 3 9 4H3l9-4Z"></path>
    <path d="M5 10v8"></path>
    <path d="M10 10v8"></path>
    <path d="M14 10v8"></path>
    <path d="M19 10v8"></path>
    <path d="M3 20h18"></path>
  </symbol>
  <symbol id="alert" viewBox="0 0 24 24">
    <path d="M12 3 2 21h20L12 3Z"></path>
    <path d="M12 10v5"></path>
    <circle cx="12" cy="18" r=".6" fill="currentColor"></circle>
  </symbol>
  <symbol id="check" viewBox="0 0 24 24">
    <circle cx="12" cy="12" r="9"></circle>
    <path d="m8 12 3 3 5-6"></path>
  </symbol>
  <symbol id="search" viewBox="0 0 24 24">
    <circle cx="11" cy="11" r="7"></circle>
    <path d="m21 21-4.3-4.3"></path>
  </symbol>
  <symbol id="chip" viewBox="0 0 24 24">
    <rect x="5" y="5" width="14" height="14" rx="2"></rect>
    <rect x="9" y="9" width="6" height="6"></rect>
    <path d="M9 2v3M15 2v3M9 19v3M15 19v3M2 9h3M2 15h3M19 9h3M19 15h3"></path>
  </symbol>
  <symbol id="phone" viewBox="0 0 24 24">
    <rect x="6" y="2" width="12" height="20" rx="2"></rect>
    <path d="M11 18h2"></path>
  </symbol>
  <symbol id="laptop" viewBox="0 0 24 24">
    <rect x="3" y="5" width="18" height="12" rx="1"></rect>
    <path d="M2 20h20"></path>
  </symbol>
  <symbol id="database" viewBox="0 0 24 24">
    <ellipse cx="12" cy="5" rx="8" ry="2.5"></ellipse>
    <path d="M4 5v6c0 1.4 3.6 2.5 8 2.5s8-1.1 8-2.5V5"></path>
    <path d="M4 11v6c0 1.4 3.6 2.5 8 2.5s8-1.1 8-2.5v-6"></path>
  </symbol>
  <symbol id="clock" viewBox="0 0 24 24">
    <circle cx="12" cy="12" r="9"></circle>
    <path d="M12 7v5l3 2"></path>
  </symbol>
  <symbol id="signal" viewBox="0 0 24 24">
    <path d="M2 9a15 15 0 0 1 20 0"></path>
    <path d="M5 13a10 10 0 0 1 14 0"></path>
    <path d="M8.5 16.5a5 5 0 0 1 7 0"></path>
    <circle cx="12" cy="20" r="1" fill="currentColor"></circle>
  </symbol>
  <symbol id="badge" viewBox="0 0 24 24">
    <circle cx="12" cy="9" r="6"></circle>
    <path d="m8 14-2 8 6-3 6 3-2-8"></path>
  </symbol>
  <symbol id="user" viewBox="0 0 24 24">
    <circle cx="12" cy="8" r="4"></circle>
    <path d="M4 21a8 8 0 0 1 16 0"></path>
  </symbol>
  <symbol id="robot" viewBox="0 0 24 24">
    <rect x="4" y="7" width="16" height="13" rx="2"></rect>
    <path d="M12 3v4"></path>
    <circle cx="12" cy="3" r="1" fill="currentColor"></circle>
    <circle cx="9" cy="13" r="1" fill="currentColor"></circle>
    <circle cx="15" cy="13" r="1" fill="currentColor"></circle>
    <path d="M9 17h6"></path>
  </symbol>
  <symbol id="tools" viewBox="0 0 24 24">
    <path d="m14.5 5.5 4 4-10 10-4-4 10-10Z"></path>
    <path d="m18 2 4 4-2 2-4-4 2-2Z"></path>
  </symbol>
  <symbol id="layers" viewBox="0 0 24 24">
    <path d="m12 3 10 5-10 5L2 8l10-5Z"></path>
    <path d="m2 13 10 5 10-5"></path>
    <path d="m2 18 10 5 10-5"></path>
  </symbol>
  <symbol id="calendar" viewBox="0 0 24 24">
    <rect x="3" y="5" width="18" height="16" rx="2"></rect>
    <path d="M3 10h18"></path>
    <path d="M8 3v4M16 3v4"></path>
  </symbol>
  <symbol id="eye" viewBox="0 0 24 24">
    <path d="M2 12s3.5-7 10-7 10 7 10 7-3.5 7-10 7S2 12 2 12Z"></path>
    <circle cx="12" cy="12" r="3"></circle>
  </symbol>
  <symbol id="menu" viewBox="0 0 24 24">
    <path d="M3 6h18M3 12h18M3 18h18"></path>
  </symbol>
  <symbol id="arrow-right" viewBox="0 0 24 24">
    <path d="M4 12h16M14 5l7 7-7 7"></path>
  </symbol>
  <symbol id="plus" viewBox="0 0 24 24">
    <path d="M12 4v16M4 12h16"></path>
  </symbol>
  <symbol id="x" viewBox="0 0 24 24">
    <path d="M6 6l12 12M18 6 6 18"></path>
  </symbol>
  <symbol id="cog" viewBox="0 0 24 24">
    <circle cx="12" cy="12" r="3"></circle>
    <path d="M12 2v3M12 19v3M4.2 4.2l2.1 2.1M17.7 17.7l2.1 2.1M2 12h3M19 12h3M4.2 19.8l2.1-2.1M17.7 6.3l2.1-2.1"></path>
  </symbol>
</svg>